<svg xmlns="http://www.w3.org/2000/svg" xmlns:xlink="http://www.w3.org/1999/xlink" width="300" zoomAndPan="magnify" viewBox="0 0 224.87999 225" height="300" preserveAspectRatio="xMidYMid meet" version="1.0"><defs><g/><clipPath id="604d8f3fca"><path d="M 36.324219 96.210938 L 50.800781 96.210938 L 50.800781 110.6875 L 36.324219 110.6875 Z M 36.324219 96.210938 " clip-rule="nonzero"/></clipPath><clipPath id="df9e886d5c"><path d="M 40.074219 96.210938 L 46.972656 96.210938 C 49.042969 96.210938 50.71875 97.890625 50.71875 99.960938 L 50.71875 106.859375 C 50.71875 108.929688 49.042969 110.605469 46.972656 110.605469 L 40.074219 110.605469 C 38.003906 110.605469 36.324219 108.929688 36.324219 106.859375 L 36.324219 99.960938 C 36.324219 97.890625 38.003906 96.210938 40.074219 96.210938 " clip-rule="nonzero"/></clipPath><clipPath id="4c83e01a77"><path d="M 36.324219 96.210938 L 50.566406 96.210938 L 50.566406 110.453125 L 36.324219 110.453125 Z M 36.324219 96.210938 " clip-rule="nonzero"/></clipPath><clipPath id="ea7d707f4a"><path d="M 40.035156 96.210938 L 46.859375 96.210938 C 48.90625 96.210938 50.566406 97.871094 50.566406 99.921875 L 50.566406 106.746094 C 50.566406 108.792969 48.90625 110.453125 46.859375 110.453125 L 40.035156 110.453125 C 37.984375 110.453125 36.324219 108.792969 36.324219 106.746094 L 36.324219 99.921875 C 36.324219 97.871094 37.984375 96.210938 40.035156 96.210938 " clip-rule="nonzero"/></clipPath><clipPath id="481dc0af17"><path d="M 40.574219 111.578125 L 55 111.578125 L 55 126 L 40.574219 126 Z M 40.574219 111.578125 " clip-rule="nonzero"/></clipPath><clipPath id="0770f4b8ed"><path d="M 44.324219 111.578125 L 51.222656 111.578125 C 53.292969 111.578125 54.96875 113.257812 54.96875 115.328125 L 54.96875 122.226562 C 54.96875 124.296875 53.292969 125.972656 51.222656 125.972656 L 44.324219 125.972656 C 42.253906 125.972656 40.574219 124.296875 40.574219 122.226562 L 40.574219 115.328125 C 40.574219 113.257812 42.253906 111.578125 44.324219 111.578125 " clip-rule="nonzero"/></clipPath><clipPath id="6a7c7d86c4"><path d="M 40.574219 111.578125 L 54.816406 111.578125 L 54.816406 125.824219 L 40.574219 125.824219 Z M 40.574219 111.578125 " clip-rule="nonzero"/></clipPath><clipPath id="fe7077a9f2"><path d="M 44.285156 111.578125 L 51.109375 111.578125 C 53.15625 111.578125 54.816406 113.238281 54.816406 115.289062 L 54.816406 122.113281 C 54.816406 124.160156 53.15625 125.824219 51.109375 125.824219 L 44.285156 125.824219 C 42.234375 125.824219 40.574219 124.160156 40.574219 122.113281 L 40.574219 115.289062 C 40.574219 113.238281 42.234375 111.578125 44.285156 111.578125 " clip-rule="nonzero"/></clipPath><clipPath id="7d68b3e5fc"><path d="M 25.207031 111.578125 L 39.683594 111.578125 L 39.683594 126 L 25.207031 126 Z M 25.207031 111.578125 " clip-rule="nonzero"/></clipPath><clipPath id="e897a98a02"><path d="M 28.957031 111.578125 L 35.855469 111.578125 C 37.921875 111.578125 39.601562 113.257812 39.601562 115.328125 L 39.601562 122.226562 C 39.601562 124.296875 37.921875 125.972656 35.855469 125.972656 L 28.957031 125.972656 C 26.886719 125.972656 25.207031 124.296875 25.207031 122.226562 L 25.207031 115.328125 C 25.207031 113.257812 26.886719 111.578125 28.957031 111.578125 " clip-rule="nonzero"/></clipPath><clipPath id="48b48f50e2"><path d="M 25.207031 111.578125 L 39.449219 111.578125 L 39.449219 125.824219 L 25.207031 125.824219 Z M 25.207031 111.578125 " clip-rule="nonzero"/></clipPath><clipPath id="7de03a1afa"><path d="M 28.914062 111.578125 L 35.742188 111.578125 C 37.789062 111.578125 39.449219 113.238281 39.449219 115.289062 L 39.449219 122.113281 C 39.449219 124.160156 37.789062 125.824219 35.742188 125.824219 L 28.914062 125.824219 C 26.867188 125.824219 25.207031 124.160156 25.207031 122.113281 L 25.207031 115.289062 C 25.207031 113.238281 26.867188 111.578125 28.914062 111.578125 " clip-rule="nonzero"/></clipPath><clipPath id="7c7d55b44e"><path d="M 56.066406 111.578125 L 70.546875 111.578125 L 70.546875 126 L 56.066406 126 Z M 56.066406 111.578125 " clip-rule="nonzero"/></clipPath><clipPath id="d35520ed8c"><path d="M 59.816406 111.578125 L 66.714844 111.578125 C 68.785156 111.578125 70.460938 113.257812 70.460938 115.328125 L 70.460938 122.226562 C 70.460938 124.296875 68.785156 125.972656 66.714844 125.972656 L 59.816406 125.972656 C 57.746094 125.972656 56.066406 124.296875 56.066406 122.226562 L 56.066406 115.328125 C 56.066406 113.257812 57.746094 111.578125 59.816406 111.578125 " clip-rule="nonzero"/></clipPath><clipPath id="8336be8b9d"><path d="M 56.066406 111.578125 L 70.308594 111.578125 L 70.308594 125.824219 L 56.066406 125.824219 Z M 56.066406 111.578125 " clip-rule="nonzero"/></clipPath><clipPath id="6e6ebc1406"><path d="M 59.777344 111.578125 L 66.601562 111.578125 C 68.648438 111.578125 70.308594 113.238281 70.308594 115.289062 L 70.308594 122.113281 C 70.308594 124.160156 68.648438 125.824219 66.601562 125.824219 L 59.777344 125.824219 C 57.726562 125.824219 56.066406 124.160156 56.066406 122.113281 L 56.066406 115.289062 C 56.066406 113.238281 57.726562 111.578125 59.777344 111.578125 " clip-rule="nonzero"/></clipPath></defs><g clip-path="url(#604d8f3fca)"><g clip-path="url(#df9e886d5c)"><path fill="#fefcff" d="M 36.324219 96.210938 L 50.800781 96.210938 L 50.800781 110.6875 L 36.324219 110.6875 Z M 36.324219 96.210938 " fill-opacity="1" fill-rule="nonzero"/></g></g><g clip-path="url(#4c83e01a77)"><g clip-path="url(#ea7d707f4a)"><path stroke-linecap="butt" transform="matrix(0.742275, 0, 0, 0.742275, 36.325613, 96.21152)" fill="none" stroke-linejoin="miter" d="M 4.997534 -0.00078494 L 14.191189 -0.00078494 C 16.948759 -0.00078494 19.185338 2.235794 19.185338 4.998627 L 19.185338 14.192282 C 19.185338 16.949852 16.948759 19.186431 14.191189 19.186431 L 4.997534 19.186431 C 2.234701 19.186431 -0.00187817 16.949852 -0.00187817 14.192282 L -0.00187817 4.998627 C -0.00187817 2.235794 2.234701 -0.00078494 4.997534 -0.00078494 " stroke="#fefcff" stroke-width="4" stroke-opacity="1" stroke-miterlimit="4"/></g></g><g clip-path="url(#481dc0af17)"><g clip-path="url(#0770f4b8ed)"><path fill="#fefcff" d="M 40.574219 111.578125 L 55.050781 111.578125 L 55.050781 126.058594 L 40.574219 126.058594 Z M 40.574219 111.578125 " fill-opacity="1" fill-rule="nonzero"/></g></g><g clip-path="url(#6a7c7d86c4)"><g clip-path="url(#fe7077a9f2)"><path stroke-linecap="butt" transform="matrix(0.742275, 0, 0, 0.742275, 40.575631, 111.5799)" fill="none" stroke-linejoin="miter" d="M 4.997509 -0.00239072 L 14.191164 -0.00239072 C 16.948735 -0.00239072 19.185314 2.234188 19.185314 4.997021 L 19.185314 14.190676 C 19.185314 16.948247 16.948735 19.190088 14.191164 19.190088 L 4.997509 19.190088 C 2.234676 19.190088 -0.00190262 16.948247 -0.00190262 14.190676 L -0.00190262 4.997021 C -0.00190262 2.234188 2.234676 -0.00239072 4.997509 -0.00239072 " stroke="#fefcff" stroke-width="4" stroke-opacity="1" stroke-miterlimit="4"/></g></g><g clip-path="url(#7d68b3e5fc)"><g clip-path="url(#e897a98a02)"><path fill="#fefcff" d="M 25.207031 111.578125 L 39.683594 111.578125 L 39.683594 126.058594 L 25.207031 126.058594 Z M 25.207031 111.578125 " fill-opacity="1" fill-rule="nonzero"/></g></g><g clip-path="url(#48b48f50e2)"><g clip-path="url(#7de03a1afa)"><path stroke-linecap="butt" transform="matrix(0.742275, 0, 0, 0.742275, 25.207331, 111.5799)" fill="none" stroke-linejoin="miter" d="M 4.993745 -0.00239072 L 14.192663 -0.00239072 C 16.950233 -0.00239072 19.186812 2.234188 19.186812 4.997021 L 19.186812 14.190676 C 19.186812 16.948247 16.950233 19.190088 14.192663 19.190088 L 4.993745 19.190088 C 2.236175 19.190088 -0.000403804 16.948247 -0.000403804 14.190676 L -0.000403804 4.997021 C -0.000403804 2.234188 2.236175 -0.00239072 4.993745 -0.00239072 " stroke="#fefcff" stroke-width="4" stroke-opacity="1" stroke-miterlimit="4"/></g></g><g clip-path="url(#7c7d55b44e)"><g clip-path="url(#d35520ed8c)"><path fill="#fefcff" d="M 56.066406 111.578125 L 70.546875 111.578125 L 70.546875 126.058594 L 56.066406 126.058594 Z M 56.066406 111.578125 " fill-opacity="1" fill-rule="nonzero"/></g></g><g clip-path="url(#8336be8b9d)"><g clip-path="url(#6e6ebc1406)"><path stroke-linecap="butt" transform="matrix(0.742275, 0, 0, 0.742275, 56.068029, 111.5799)" fill="none" stroke-linejoin="miter" d="M 4.997226 -0.00239072 L 14.190881 -0.00239072 C 16.948451 -0.00239072 19.18503 2.234188 19.18503 4.997021 L 19.18503 14.190676 C 19.18503 16.948247 16.948451 19.190088 14.190881 19.190088 L 4.997226 19.190088 C 2.234393 19.190088 -0.00218627 16.948247 -0.00218627 14.190676 L -0.00218627 4.997021 C -0.00218627 2.234188 2.234393 -0.00239072 4.997226 -0.00239072 " stroke="#fefcff" stroke-width="4" stroke-opacity="1" stroke-miterlimit="4"/></g></g><g fill="#ae8cfa" fill-opacity="1"><g transform="translate(76.178095, 121.792262)"><g><path d="M 0.878906 -13.988281 L 0.878906 3.996094 L 3.117188 3.996094 L 8.292969 -3.378906 L 13.488281 3.996094 L 15.726562 3.996094 L 9.433594 -4.996094 L 15.726562 -13.988281 L 13.488281 -13.988281 L 8.292969 -6.59375 L 7.175781 -4.996094 L 2.71875 1.378906 L 2.71875 -13.988281 Z M 0.878906 -13.988281 "/></g></g></g><g fill="#ae8cfa" fill-opacity="1"><g transform="translate(92.80266, 121.792262)"><g><path d="M 2.71875 -13.988281 L 0.878906 -13.988281 L 0.878906 3.996094 L 2.71875 3.996094 L 2.71875 -3.277344 C 2.71875 -3.71875 2.359375 -4.078125 1.917969 -4.078125 L 13.890625 -4.078125 L 13.890625 3.996094 L 15.726562 3.996094 L 15.726562 -13.988281 L 13.890625 -13.988281 L 13.890625 -6.695312 C 13.890625 -6.253906 14.25 -5.914062 14.6875 -5.914062 L 2.71875 -5.914062 Z M 2.71875 -13.988281 "/></g></g></g><g fill="#ae8cfa" fill-opacity="1"><g transform="translate(109.427225, 121.792262)"><g><path d="M 7.3125 -13.988281 L 0.878906 3.996094 L 2.816406 3.996094 L 4.535156 -0.757812 L 12.070312 -0.757812 L 13.769531 3.996094 L 15.726562 3.996094 L 9.273438 -13.988281 Z M 11.410156 -2.597656 L 5.195312 -2.597656 L 8.292969 -11.25 Z M 11.410156 -2.597656 "/></g></g></g><g fill="#ae8cfa" fill-opacity="1"><g transform="translate(126.05179, 121.792262)"><g><path d="M 0.878906 -13.988281 L 0.878906 3.996094 L 9.851562 3.996094 C 14.828125 3.996094 18.84375 -0.0195312 18.84375 -4.996094 C 18.84375 -9.953125 14.828125 -13.988281 9.851562 -13.988281 Z M 17.007812 -4.996094 C 17.007812 -1.039062 13.808594 2.160156 9.851562 2.160156 L 1.917969 2.160156 C 2.359375 2.160156 2.71875 1.796875 2.71875 1.359375 L 2.71875 -12.128906 L 9.851562 -12.128906 C 13.808594 -12.128906 17.007812 -8.933594 17.007812 -4.996094 Z M 17.007812 -4.996094 "/></g></g></g><g fill="#ae8cfa" fill-opacity="1"><g transform="translate(145.793459, 121.792262)"><g><path d="M 2.71875 3.996094 L 2.71875 -13.988281 L 0.878906 -13.988281 L 0.878906 3.996094 Z M 2.71875 3.996094 "/></g></g></g><g fill="#ae8cfa" fill-opacity="1"><g transform="translate(149.390122, 121.792262)"><g><path d="M 0.878906 -13.988281 L 0.878906 3.996094 L 9.851562 3.996094 C 14.828125 3.996094 18.84375 -0.0195312 18.84375 -4.996094 C 18.84375 -9.953125 14.828125 -13.988281 9.851562 -13.988281 Z M 17.007812 -4.996094 C 17.007812 -1.039062 13.808594 2.160156 9.851562 2.160156 L 1.917969 2.160156 C 2.359375 2.160156 2.71875 1.796875 2.71875 1.359375 L 2.71875 -12.128906 L 9.851562 -12.128906 C 13.808594 -12.128906 17.007812 -8.933594 17.007812 -4.996094 Z M 17.007812 -4.996094 "/></g></g></g><g fill="#ae8cfa" fill-opacity="1"><g transform="translate(169.131791, 121.792262)"><g><path d="M 10.671875 -12.128906 L 14.6875 -12.128906 C 14.25 -12.128906 13.890625 -11.789062 13.890625 -11.351562 L 13.890625 -3.4375 C 13.890625 -0.339844 11.390625 2.160156 8.292969 2.160156 C 5.214844 2.160156 2.71875 -0.339844 2.71875 -3.4375 L 0.878906 -3.4375 C 0.878906 0.679688 4.195312 3.996094 8.292969 3.996094 C 12.410156 3.996094 15.726562 0.679688 15.726562 -3.4375 L 15.726562 -13.988281 L 10.671875 -13.988281 Z M 10.671875 -12.128906 "/></g></g></g><g fill="#ae8cfa" fill-opacity="1"><g transform="translate(185.756356, 121.792262)"><g><path d="M 7.3125 -13.988281 L 0.878906 3.996094 L 2.816406 3.996094 L 4.535156 -0.757812 L 12.070312 -0.757812 L 13.769531 3.996094 L 15.726562 3.996094 L 9.273438 -13.988281 Z M 11.410156 -2.597656 L 5.195312 -2.597656 L 8.292969 -11.25 Z M 11.410156 -2.597656 "/></g></g></g></svg>